<svg id="Layer_1" xmlns="http://www.w3.org/2000/svg" viewBox="0 0 360 144"><style>.st0{fill:#fff}</style><path class="st0" d="M112.1 97.2c-2.2 0-5.3-2.1-5.3-8.3 0-5.6 1.7-8.3 5.4-8.3 3.3 0 4.5 2.8 5.3 5.6h.7v-6.1h-.6c-.2.5-.6 1-1.1 1-.4 0-2.3-1.4-4.6-1.4-4.7 0-8.1 4.4-8.1 9.1 0 4.7 3.4 9.1 7.8 9.1 4.8 0 6.8-2.8 7.1-7h-.7c-.3 3.7-1.8 6.3-5.9 6.3M206.3 81.8c.8 0 1.2-.6 1.2-1.4 0-.8-1.4-1.4-2.2-1.4-.8 0-.7.6-.7 1.4.1.8 1 1.4 1.7 1.4M187 95.9V85.8h-4.4v.9c1.5 0 2 .3 2 1.1v5.7c-.2 1.7-1.2 3.6-3.3 3.6-1.4 0-1.9-1-1.9-2.5v-8.9h-4.2v.9c1.4 0 1.8.3 1.8 1.1v5.8c0 3 1.5 4.6 3.8 4.6 1.8 0 3-1 3.9-2.6h.1V98l4-.2v-.9c-1.4 0-1.8-.2-1.8-1M214 85.8v-4h-.9c-.7 3.1-1 3.8-3.4 4v.9h1.9V95c0 2.5 1.4 3.1 3.2 3.1 2.5 0 3.2-1.4 3.2-3.7V94h-.7v.5c0 2.1-.9 2.8-1.9 2.8-.7 0-1.4-.3-1.4-1.3v-9.3h2.9v-.9H214z"/><path class="st0" d="M216.9 85.8h.6v.9h-.6zM207.8 95.9V85.6l-4.4.2v.9c1.5 0 1.9.3 1.9 1.1V96c0 .8-.5 1.1-1.9 1.1v.9h6.3v-.9c-1.4-.2-1.9-.4-1.9-1.2"/><path class="st0" d="M225.1 86.6c1.5 0 1.8.2 1.8.8 0 .7-.4 1.4-2.8 7.5h-.1c-2.5-6.2-2.9-7.3-2.9-7.8s.2-.5 1.7-.5v-.9h-5.2v.9h-.6c1.2 0 1.4.2 1.7 1.1l4.2 10.2c-.4 1.4-1.4 3.7-3 3.7-.3 0-.6-.1-.8-.3.6-.2 1-.7 1-1.4 0-.6-.4-1.3-1.4-1.3s-1.5.7-1.5 1.6c0 1.4 1 2.3 2.6 2.3 2.7 0 3.7-2.3 5.7-7.6l2.7-7.2c.4-1 .7-1.1 1.8-1.1v-.9h-4.7v.9zM126.5 97.2c-2.1 0-3.5-1.3-3.5-5.5s1.4-5.5 3.5-5.5 3.5 1.3 3.5 5.5c0 4.3-1.4 5.5-3.5 5.5m0-11.8c-3.5 0-6.2 2.6-6.2 6.3s2.8 6.3 6.2 6.3c3.5 0 6.2-2.6 6.2-6.3s-2.7-6.3-6.2-6.3M152.3 95.9v-6.4c0-3.3-2.2-4-3.8-4-1.6 0-2.9.8-3.8 2.7-.6-1.9-1.8-2.7-3.7-2.7-1.6 0-2.7 1-3.3 2.5h-.1v-2.3l-4.2.2v.9c1.4 0 1.9.3 1.9 1.1v8.2c0 .8-.5 1.1-1.9 1.1v.9h6.3v-.9c-1.5 0-2-.3-2-1.1v-5.2c0-3.2 1.4-4.2 2.6-4.2 1.6 0 2.2.9 2.2 2.7V98h4.2v-.9c-1.4 0-1.8-.3-1.8-1.1v-5.2c0-3.2 1.4-4.2 2.6-4.2 1.6 0 2.2.9 2.2 2.7v8.6h4.3V97c-1.3-.1-1.7-.3-1.7-1.1M173.8 95.9v-6.4c0-3.3-2.2-4-3.8-4-1.6 0-2.9.8-3.8 2.7-.6-1.9-1.8-2.7-3.7-2.7-1.6 0-2.7 1-3.3 2.5h-.1v-2.3l-4.2.2v.9c1.4 0 1.9.3 1.9 1.1v8.2c0 .8-.5 1.1-1.9 1.1v.9h6.3v-.9c-1.5 0-2-.3-2-1.1v-5.2c0-3.2 1.4-4.2 2.6-4.2 1.6 0 2.2.9 2.2 2.7V98h4.2v-.9c-1.4 0-1.8-.3-1.8-1.1v-5.2c0-3.2 1.4-4.2 2.6-4.2 1.6 0 2.2.9 2.2 2.7v8.6h4.3V97c-1.2-.1-1.7-.3-1.7-1.1M201.4 95.9v-5.7c0-3.7-2-4.7-3.8-4.7-1.8 0-3 1-3.9 2.6h-.1v-2.4l-4 .2v.9c1.4 0 1.8.3 1.8 1.1v8.2c0 .8-.5 1.1-1.8 1.1v.9h6.2v-.9c-1.5 0-2-.3-2-1.1V91c0-1.9 1.2-4.3 3.1-4.3.9 0 2.1.5 2.1 2.8v8.6h4.2v-.9c-1.3-.3-1.8-.5-1.8-1.3M280.1 90.9c0-1.8.4-4.5 2.8-4.5 2.5 0 2.9 2.7 2.9 4.5h-5.7zm2.9-5.4c-3.2 0-5.6 2.9-5.6 6.3s2.5 6.3 5.6 6.3c2.7 0 4.2-1.1 5.3-2.8l-.6-.4c-1 1.3-2.1 2.4-3.9 2.4-2.2 0-3.7-2-3.7-5.5h8.3c0-4.2-2.4-6.3-5.4-6.3M295 92.6c-1.4 0-2.3-1-2.3-3.1s.9-3.1 2.3-3.1 2.3 1 2.3 3.1-.9 3.1-2.3 3.1m4.3 6.9c0 1.4-1.6 2.6-4.4 2.6-2 0-3.7-1.3-3.7-2.7 0-1 1-2 3.4-2 3.2.1 4.7.9 4.7 2.1m.8-12.9c.6 0 1-.5 1-1 0-1.2-.8-1.4-1.6-1.4-1.2 0-1.9.7-1.9 1.9-.7-.4-1.4-.6-2.8-.6-2.8 0-4.7 2-4.7 3.9s1.4 3.1 3.1 3.7v.1c-.9.2-2.9.9-2.9 2.1 0 1.4 1.4 1.7 2.5 1.8V97c-1.5.1-3.4 1.2-3.4 2.7 0 1.8 2.5 3.3 5.5 3.3 2.7 0 6.3-1.3 6.3-4.4 0-4.7-9-2.5-9-4.2 0-.7.9-1 3.8-1.2 2.5-.2 4-2.3 4-3.9 0-.7-.2-1.2-.4-1.7-.3-.5-.7-.9-1.2-1.3V86c0-.6.4-1 .7-1h.2c0 .1-.1.4-.1.6-.1.7.3 1 .9 1M275.3 95.9l-.2-15.7-4.4.2.2.9c1.5 0 1.9.3 1.9 1.1V96c0 .8-.5 1.1-1.9 1.1v.9h6.3v-1c-1.4 0-1.9-.3-1.9-1.1M307.5 86.4c2.5 0 2.9 2.7 2.9 4.5h-5.7c0-1.9.4-4.5 2.8-4.5m.9 10.9c-2.2 0-3.7-2-3.7-5.5h8.3c0-4.2-2.4-6.3-5.4-6.3-3.2 0-5.6 2.9-5.6 6.3s2.5 6.3 5.6 6.3c2.7 0 4.2-1.1 5.3-2.8l-.6-.4c-1 1.4-2.1 2.4-3.9 2.4M243.7 97.3c-2.2 0-5.3-2.1-5.3-8.3 0-5.6 1.4-8.3 5.1-8.3 3.3 0 4.7 2.8 5.5 5.6h.7l-.2-6.1h-.6c-.2.5-.3 1-.8 1-.4 0-2.5-1.4-4.8-1.4-4.7 0-7.9 4.4-7.9 9.1 0 4.7 3.4 9.1 7.8 9.1 4.8 0 6.8-2.8 7.1-7h-.7c-.3 3.6-1.8 6.3-5.9 6.3M268.7 95.9l-.2-15.7-4.4.2.2.9c1.5 0 2 .3 2 1.1V96c0 .8-.5 1.1-2 1.1v.9h6.3v-1c-1.4 0-1.9-.3-1.9-1.1"/><path class="st0" d="M258 97.3c-2.1 0-3.5-1.3-3.5-5.5s1.4-5.5 3.5-5.5 3.5 1.3 3.5 5.5-1.4 5.5-3.5 5.5m0-11.8c-3.5 0-6.2 2.6-6.2 6.3 0 3.7 2.8 6.3 6.2 6.3 3.5 0 6.2-2.6 6.2-6.3.1-3.7-2.7-6.3-6.2-6.3M261.2 70.6V60c0-6.9-3.7-8.7-7.1-8.7-3.3 0-5.6 1.8-7.3 4.8h-.1v-4.5l-7.5.3v1.6c2.5 0 3.4.5 3.4 2v15.1c0 1.5-.9 2-3.4 2v1.6h11.5v-1.6c-2.9 0-3.7-.5-3.7-2v-9.4c0-3.6 2.3-8 5.8-8 1.8 0 3.8 1 3.8 5.1v15.9h7.8v-1.6c-2.4 0-3.2-.5-3.2-2M222.7 61.3c0-3.4.7-8.4 5.2-8.4 4.7 0 5.3 4.9 5.3 8.4h-10.5zm5.3-10c-5.9 0-10.5 5.4-10.5 11.7 0 6.3 4.6 11.7 10.5 11.7 5.1 0 7.7-2.1 9.8-5.2l-1.1-.8c-1.8 2.4-3.9 4.4-7.1 4.4-4.1 0-6.9-3.7-6.9-10.3H238c0-7.6-4.5-11.5-10-11.5M279.5 65.9c0 4-2.6 6.8-5.6 6.8-2.2 0-3.3-1.5-3.3-3.7 0-4.1 5.6-6.5 8.9-7.3v4.2zm5.9 6.1c-.9 0-1.5-.3-1.5-2.7V57.8c0-5-3-6.6-9.2-6.6-4.3 0-8.1 2.4-8.1 5.3 0 1.4 1.1 2.8 2.8 2.8 1.6 0 2.8-1.3 2.8-2.8 0-1.3-.8-2.3-2-2.5 1.4-.9 2.8-1.2 4.5-1.2 1.8 0 4.9.6 4.9 2.9v4.4c-4 1.4-14.1 3.6-14.1 9 0 3.7 3.3 5.5 6.7 5.5 3.5 0 6.3-1 7.6-4.6h.1c.4 2.5 1 4.3 3.9 4.3 3.4 0 4.9-2.7 4.9-5.8h-1.3c-.1 1.3-.5 3.5-2 3.5M311.9 53.5c2.4 0 3.3.2 3.3 1.6 0 1.1-.6 2.1-4.6 12.8h-.1c-4-11.5-4.7-12.3-4.7-13.4 0-.9.4-1 3-1v-1.6H298v1.6c2.4 0 2.9 0 3.2 1l.5 1.3-4.5 12.2h-.1c-4-11.7-4.5-12.5-4.5-13.2 0-1.1.4-1.2 2.7-1.2V52h-10.8v1.6c1.6 0 3 .1 3.4 1.1l7 19.6h1.9l5.8-15.5 5.5 15.5h1.9l6.7-18.1c.7-2.2 1.9-2.6 4-2.6V52h-9.1v1.5zM144 65.9c0 4-2.6 6.8-5.6 6.8-2.2 0-3.3-1.5-3.3-3.7 0-4.1 5.6-6.5 8.9-7.3v4.2zm5.9 6.1c-.9 0-1.5-.3-1.5-2.7V57.8c0-5-3-6.6-9.2-6.6-4.3 0-8.1 2.4-8.1 5.3 0 1.4 1.1 2.8 2.8 2.8 1.6 0 2.8-1.3 2.8-2.8 0-1.3-.8-2.3-2-2.5 1.4-.9 2.8-1.2 4.5-1.2 1.8 0 4.9.6 4.9 2.9v4.4c-4 1.4-14.1 3.6-14.1 9 0 3.7 3.3 5.5 6.7 5.5 3.5 0 6.3-1 7.7-4.6h.1c.4 2.5 1 4.3 3.8 4.3 3.4 0 4.9-2.7 4.9-5.8h-1.3c-.1 1.3-.5 3.5-2 3.5M159.3 56.1c0-2.4 2.2-3.2 4.3-3.2 4.1 0 5.8 2.1 7.2 5.7h1.6v-6.9h-1.6c-.1.5-.3 1.2-1.1 1.2s-2.1-1.6-6.2-1.6c-4.3 0-8.1 2.4-8.1 6.6 0 8.5 14.6 4.7 14.6 11.3 0 2.6-2.9 3.9-5.1 3.9-4.2 0-7.3-2.8-8.3-6.8h-1.3v8.2h1.3c.2-.6.4-1.5 1.3-1.5 1.5 0 2.8 1.8 7.1 1.8 4.7 0 8.8-2.6 8.8-7.7.1-8.8-14.5-5.2-14.5-11M135 43.1v-1.6h-10.5v1.6c3.4 0 4 .5 4 2.1 0 1.4-.4 2.7-.7 3.6l-5.1 17h-.1l-5-16.8c-.4-1.5-1.1-2.9-1.1-4 0-1.4 1-1.9 3.7-1.9v-1.6h-12.1v1.6c2.7 0 3.1.5 3.6 2.1l1.3 4.3-4.9 15.9h-.1l-5.2-17.6c-.3-1-.7-2.1-.7-2.9 0-1.3.9-1.8 3.5-1.8v-1.6H93.7v1.6c2.3 0 2.8.5 3.4 2.7l8.6 28.4h1.6l6.7-21.4h.1l6.4 21.4h1.6l8.2-26.2c1.1-3.6 1.8-4.9 4.7-4.9M213.8 68c0 3.8-1.6 5.1-3.5 5.1-1.4 0-2.6-.5-2.6-2.5V53.5h6.6v-1.6h-6.6v-7.4H206c-1.2 5.8-1.8 7-6.2 7.4v1.6h3.5V69c0 4.7 2.6 5.8 5.9 5.8 4.7 0 6-2.7 6-6.9V67h-1.3v1zM196.7 70.6V60c0-6.9-3.7-8.7-7.1-8.7-3.3 0-5.6 1.9-6.9 4.8h-.1V41.5l-7.8.3v1.6c2.5 0 3.4.5 3.4 2v25.2c0 1.5-.9 2-3.4 2v1.6h11.5v-1.6c-2.9 0-3.7-.5-3.7-2v-9.4c0-3.6 2.3-8 5.8-8 1.8 0 3.8 1 3.8 5.1v15.9h7.8v-1.6c-2.4 0-3.3-.5-3.3-2M79.5 79.3c-.6.6-1.6.6-2.2 0l-11.1-11c-.6-.6-1.6-.6-2.2 0L53.3 79c-.6.6-1.6.6-2.2 0L39.7 67.6v1.9l12.2 12.2c.6.6 1.6.6 2.2 0L64.8 71c.6-.6 1.6-.6 2.2 0l11.1 11c.6.6 1.6.6 2.2 0l11.2-11.2v-3.5l-12 12z"/><path class="st0" d="M79.5 87.1c-.6.6-1.6.6-2.2 0l-11.1-11c-.6-.6-1.6-.6-2.2 0L53.3 86.9c-.6.6-1.6.6-2.2 0L39.7 75.5v1.9l12.2 12.2c.6.6 1.6.6 2.2 0l10.7-10.7c.6-.6 1.6-.6 2.2 0l11.1 11c.6.6 1.6.6 2.2 0l11.2-11.2v-3.5l-12 11.9z"/><path class="st0" d="M79.5 94.6c-.6.6-1.6.6-2.2 0l-11.1-11c-.6-.6-1.6-.6-2.2 0L53.3 94.4c-.6.6-1.6.6-2.2 0L39.7 83v1.9l12.2 12.2c.6.6 1.6.6 2.2 0l10.7-10.7c.6-.6 1.6-.6 2.2 0l11.1 11c.6.6 1.6.6 2.2 0l11.2-11.2v-3.5l-12 11.9zM73.6 49.6l-.1 2.1c0 .4-.1.8-.5 1.1l-6.5 6.5c-.6.6-1.6.6-2.2 0l-6.5-6.5c-.3-.3-.4-.6-.4-1v-2.4c0-.4.2-.7.5-1l6.5-6.5c.4-.4 1.2-.5 1.6-.3.3.1.8.6 1 .8l-1.5 1.7v2.2l2.6-2.8 1.3 1.3-3.9 4.2v2.4l5.1-5.4 1.3 1.3-6.6 6.7-.1 2.4 7.8-7.9.3.4c.2.4.2.5.3.7M60.6 62.9l-.1 2.1c0 .4-.1.8-.5 1.1l-6.5 6.5c-.6.6-1.6.6-2.2 0l-6.5-6.5c-.3-.3-.4-.6-.4-1v-2.4c0-.4.2-.7.5-1l6.5-6.5c.4-.4 1.2-.5 1.6-.3.3.1.8.6 1 .8l-1.5 1.7v2.2l2.6-2.8 1.3 1.3-3.7 4.2-.1 2.3 5.1-5.4 1.3 1.3-6.4 6.8-.1 2.4 7.8-7.9.3.4v.7M86.4 62.5l-.1 2.1c0 .4-.1.8-.5 1.1l-6.5 6.5c-.6.6-1.6.6-2.2 0l-6.5-6.5c-.3-.3-.4-.6-.4-1v-2.4c0-.4.2-.7.5-1l6.5-6.5c.4-.4 1.2-.5 1.6-.3.3.1.8.6 1 .8L78.2 57v2.2l2.6-2.8 1.3 1.3-3.7 4.2-.1 2.4 5.1-5.5 1.3 1.3-6.4 6.8-.1 2.4 7.8-7.9.3.4c.1.4.1.5.1.7"/></svg>